<?xml version="1.0" encoding="UTF-8" standalone="no"?>
<svg width="320px" height="164px" viewBox="0 0 320 164" version="1.1" xmlns="http://www.w3.org/2000/svg" xmlns:xlink="http://www.w3.org/1999/xlink" xmlns:sketch="http://www.bohemiancoding.com/sketch/ns">
    <!-- Generator: Sketch 3.4.2 (15857) - http://www.bohemiancoding.com/sketch -->
    <title>Slice 1</title>
    <desc>Created with Sketch.</desc>
    <defs>
        <linearGradient x1="50%" y1="0%" x2="50%" y2="100%" id="linearGradient-1">
            <stop stop-color="#FBDA61" offset="0%"></stop>
            <stop stop-color="#F76B1C" offset="100%"></stop>
        </linearGradient>
        <filter x="-50%" y="-50%" width="200%" height="200%" filterUnits="objectBoundingBox" id="filter-2">
            <feOffset dx="0" dy="1" in="SourceAlpha" result="shadowOffsetInner1"></feOffset>
            <feGaussianBlur stdDeviation="1.5" in="shadowOffsetInner1" result="shadowBlurInner1"></feGaussianBlur>
            <feComposite in="shadowBlurInner1" in2="SourceAlpha" operator="arithmetic" k2="-1" k3="1" result="shadowInnerInner1"></feComposite>
            <feColorMatrix values="0 0 0 0 0   0 0 0 0 0   0 0 0 0 0  0 0 0 0.35 0" in="shadowInnerInner1" type="matrix" result="shadowMatrixInner1"></feColorMatrix>
            <feMerge>
                <feMergeNode in="SourceGraphic"></feMergeNode>
                <feMergeNode in="shadowMatrixInner1"></feMergeNode>
            </feMerge>
        </filter>
        <linearGradient x1="100%" y1="65.0659621%" x2="3.82482544%" y2="65.065961%" id="linearGradient-3">
            <stop stop-color="#181818" offset="0%"></stop>
            <stop stop-color="#181818" offset="100%"></stop>
        </linearGradient>
        <linearGradient x1="50%" y1="100%" x2="50%" y2="0%" id="linearGradient-4">
            <stop stop-color="#F76B1C" offset="0%"></stop>
            <stop stop-color="#FBDA61" offset="100%"></stop>
        </linearGradient>
    </defs>
    <g id="Page-1" stroke="none" stroke-width="1" fill="none" fill-rule="evenodd" sketch:type="MSPage">
        <g id="logo-small" sketch:type="MSLayerGroup" transform="translate(10.000000, 3.000000)">
            <path d="M306.712019,44.5226797 C303.580112,43.4549842 301.160039,42.9211445 299.451726,42.9211445 C296.17746,42.9211445 293.365904,44.1311812 291.016974,46.551291 C288.668044,48.9714008 287.493596,51.8897247 287.493596,55.3063503 C287.493596,58.224718 288.774812,61.9260069 291.337281,66.410328 L294.64712,72.1758548 C300.626215,82.568091 303.615718,92.6042782 303.615718,102.284717 C303.615718,116.449478 298.579829,128.443077 288.507902,138.265876 C278.435974,148.088674 267.366399,150.851532 252.84574,150.851532 L184.893498,150.851532 L197.507453,109.972084 C197.507453,109.972084 241.193509,109.972087 241.903226,109.972087 C245.67575,109.972087 248.825405,108.886612 251.352284,106.715632 C253.879164,104.544651 255.142584,101.822068 255.142584,98.5478018 C255.142584,96.4124108 253.113993,91.7502104 249.05675,84.5610607 C242.579398,73.1723087 239.34077,61.7837276 239.34077,50.3949756 C239.34077,36.6572935 244.234301,24.8238459 254.02151,14.8942777 C263.808718,4.9647096 275.499809,0 289.095131,0 C295.074226,0 300.946463,0.996500851 306.712019,2.98953245 L306.712019,44.5226797 Z" id="S" stroke="#181818" stroke-width="6" fill="url(#linearGradient-1)" filter="url(#filter-2)" sketch:type="MSShapeGroup"></path>
            <g id="vimlogo" transform="translate(0.000000, 10.000000)" sketch:type="MSShapeGroup">
                <g id="layer1" transform="translate(0.010986, 0.386160)">
                    <g id="g3699" transform="translate(0.001609, 0.157738)">
                        <path d="M90.5803863,0 L88.7162563,1.97689269 L88.7162563,9.23511914 L90.3490709,10.966704 L98.9757743,10.966704 L98.9757743,17.9796226 L41.9089064,79.3210155 L41.9089064,11.0532832 L51.3928375,11.0532832 L53.3386081,8.98981129 L53.3386081,1.6450056 L51.5425121,0.173158484 L1.63281453,0.173158484 L0,1.90474332 L0,9.40827762 L1.66002811,11.1687222 L10.3411587,11.1687222 L10.3411587,136.881781 L11.9739732,138.613366 L21.8388944,138.613366 L141.428952,7.74884215 L141.428952,1.97689269 L139.564822,0 L90.5803863,0 L90.5803863,0 Z" id="path3632" stroke="#181818" stroke-width="11.108"></path>
                        <path d="M88.7162563,1.97689269 L88.7162563,9.23511914 L90.3490709,10.966704 L98.9757743,10.966704 L98.9757743,17.9796226 L68.1640914,51.0992175 L41.9089064,79.3210155 L41.9089064,11.0532832 L51.3928375,11.0532832 L53.3386081,8.98981129 L53.3386081,1.6450056 L51.5425121,0.173158484 L1.63281453,0.173158484 L0,1.90474332 L0,9.40827762 L1.66002811,11.1687222 L10.3411587,11.1687222 L10.3411587,48.9247231 L10.3411587,136.881781 L11.9739732,138.613366 L21.8388944,138.613366 L96.4630748,56.9539203 C111.451701,40.5522276 141.428952,7.74884215 141.428952,7.74884215 L141.428952,1.97689269 L139.564822,0 L90.5803863,0 L88.7162563,1.97689269 Z" id="path3622" stroke="#116276" stroke-width="1.38848869" fill="url(#linearGradient-1)"></path>
                        <g id="g3673" transform="translate(71.163112, 39.362494)">
                            <path d="M37.3512615,0.800619244 C37.1846637,0.835488776 37.029926,0.913070364 36.9021482,1.02579341 L32.6605219,4.67861871 C32.5336967,4.79404123 32.4390955,4.94064512 32.3860638,5.10394768 L28.1444375,17.0131589 C28.0166464,17.3699609 28.1039184,17.7686266 28.3689942,18.0389523 L31.6125908,21.291468 C31.8000814,21.4721196 32.0512308,21.5710568 32.3112115,21.5666809 L45.4103514,21.5666809 C45.6703321,21.5710568 45.9214815,21.4721196 46.1089721,21.291468 L49.5272239,17.8387975 C49.6449595,17.7204875 49.7308108,17.574139 49.7767313,17.4134686 L53.4195397,4.87877352 C53.5205692,4.53224194 53.4248851,4.15804759 53.1700323,3.90301882 L50.3505984,1.07583211 C50.1631077,0.895180513 49.9119583,0.796243359 49.6519776,0.800619244 L37.5508675,0.800619244 C37.484504,0.793838017 37.417625,0.793838017 37.3512615,0.800619244 L37.3512615,0.800619244 Z M13.3486472,34.3765888 C12.981587,34.4555481 12.6912617,34.7369676 12.600125,35.10215 L10.9783267,41.5571426 C10.9053212,41.850778 10.970663,42.1617679 11.1556091,42.4009069 C11.3405552,42.6400458 11.6246693,42.780909 11.9264549,42.7830909 L19.6362344,42.7830909 L0.523965593,97.5004123 C0.423815571,97.7998575 0.472600016,98.1292769 0.655205668,98.3866176 C0.837811319,98.6439583 1.13218959,98.7981477 1.44714307,98.8014186 L29.267221,98.8014186 C29.6963127,98.8075279 30.0799149,98.534219 30.2153492,98.1258961 L32.0367534,92.2463485 C32.1284321,91.9459039 32.0720074,91.6196408 31.8847967,91.3676935 C31.6975861,91.1157462 31.4019508,90.9682085 31.0886252,90.9703616 L24.8010381,90.9703616 L43.7137009,35.6775951 C43.8138509,35.3781499 43.7650664,35.0487305 43.5824608,34.7913898 C43.3998551,34.5340491 43.1054769,34.3798597 42.7905234,34.3765888 L13.5482532,34.3765888 C13.4818897,34.3698076 13.4150107,34.3698076 13.3486472,34.3765888 L13.3486472,34.3765888 Z M101.324965,34.9019952 L95.5363931,41.4570652 L86.3295691,41.4570652 L80.1916864,35.0771306 C80.0082834,34.887309 79.7566305,34.7791612 79.4930656,34.7768984 L57.5114615,34.7768984 C57.0980501,34.777853 56.7292746,35.0377051 56.588284,35.4274016 L54.5672739,41.4820846 C54.4671238,41.7815298 54.5159083,42.1109492 54.6985139,42.3682899 C54.8811196,42.6256305 55.1754979,42.77982 55.4904513,42.7830909 L61.3788266,42.7830909 L43.0649816,96.8999479 C42.9648315,97.1993931 43.013616,97.5288125 43.1962216,97.7861532 C43.3788273,98.0434938 43.6732056,98.1976833 43.988159,98.2009542 L62.5645708,98.2009537 C62.9779822,98.1999991 65.0964872,90.9703616 65.0964872,90.9703616 L76.7734347,54.116857 L97.9067136,54.116857 L84.5830171,96.9249672 C84.4913384,97.2254119 84.5477631,97.551675 84.7349737,97.8036223 C84.9221844,98.0555696 85.2178196,98.2031073 85.5311453,98.2009542 L103.70741,98.2009537 C104.099324,98.1979313 106.040656,91.3956906 106.040656,91.3956906 L117.917209,53.9167022 L138.027508,53.9167022 L124.504205,96.9249672 C124.412526,97.2254119 124.468951,97.551675 124.656162,97.8036223 C124.843372,98.0555696 125.139008,98.2031073 125.452333,98.2009542 L144.891836,98.200953 C145.298935,98.2039221 147.359085,90.9703616 147.359085,90.9703616 L162.30458,42.3077232 C162.404474,42.0010002 162.348574,41.6646829 162.154876,41.4070265 L157.514037,35.1521887 C157.32177,34.9078841 157.025871,34.7687999 156.715614,34.7768984 L138.975636,34.7768984 C138.703421,34.7723438 138.441478,34.8810318 138.252064,35.0771306 L132.663098,41.2318911 L122.882407,41.2318911 L117.093835,34.8769758 C116.904421,34.680877 116.642478,34.5721889 116.370263,34.5767436 L102.073488,34.5767436 C101.659994,34.6211002 101.46689,34.7355209 101.324965,34.9019952 Z" id="path3671" stroke="url(#linearGradient-3)" stroke-width="11.1079096" fill="#CCCCCC"></path>
                            <path d="M37.5508675,1.77637395 L33.3092412,5.42919925 L29.067615,17.3384105 L32.3112115,20.5909262 L45.4103514,20.5909262 L48.8286031,17.1382557 L52.4714115,4.60356065 L49.6519776,1.77637395 L37.5508675,1.77637395 L37.5508675,1.77637395 Z M13.5482532,35.3523435 L11.9264549,41.8073362 L21.0085252,41.8073362 L1.44714307,97.8256639 L29.267221,97.8256639 L31.0886252,91.9461163 L23.4287472,91.9461163 L42.7905234,35.3523435 L13.5482532,35.3523435 L13.5482532,35.3523435 Z M96.0104572,42.4328199 L85.9303572,42.4328199 L79.4930656,35.7526531 L57.5114615,35.7526531 L55.4904513,41.8073362 L62.7511174,41.8073362 L43.988159,97.2251995 L61.937662,97.2252011 L63.7491471,91.9461163 L76.0498632,53.1411023 L99.2540537,53.1411023 L85.5311453,97.2251995 L103.254555,97.2252011 L104.693316,92.3714453 L117.193638,52.9409475 L139.374848,52.9409475 L125.452333,97.2251995 L144.568313,97.2252011 L146.011745,91.9461163 L161.356452,42.007491 L156.715614,35.7526531 L138.975636,35.7526531 L133.112211,42.2076458 L122.433293,42.2076458 L116.370263,35.5524983 L102.073488,35.5524983 L96.0104572,42.4328199 Z" id="path3665" stroke="url(#linearGradient-4)" stroke-width="1.38848869" fill="url(#linearGradient-1)"></path>
                        </g>
                    </g>
                </g>
            </g>
        </g>
    </g>
</svg>